# xmcd CD database file
#
# Track frame offsets:
#	150
#	42637
#	69932
#	100487
#	129867
#	158342
#	186377
#	220352
#	262542
#	291972
#	324957
#
# Disc length: 4749 seconds
#
# Revision: 6
# Processed by: cddbd v1.5.2PL0 Copyright (c) Steve Scherf et al.
# Submitted via: Feurio! 1.68 - http://www.feurio.com
#
DISCID=97128b0b
DTITLE=The History Of Trance - The Psychedelic Movement CD1
DYEAR=1997
DGENRE=Trance
TTITLE0=Astral Projection - Mahadeva (Original Version)
TTITLE1=Man With No Name - Floor Essence
TTITLE2=Hallucinogen - LSD
TTITLE3=Juno Reactor - High Energy Protons
TTITLE4=Total Eclipse - Aliens
TTITLE5=The Infinity Project - Uforica
TTITLE6=Prana - Scarab
TTITLE7=Koxbox - Insect (Original Version)
TTITLE8=Eat Static - Bony Incus (Man With No Name Remix)
TTITLE9=Kode IV - Near To The Divine (Doof Remix)
TTITLE10=Blue Planet Corporation - Generator
EXTD=
EXTT0=
EXTT1=
EXTT2=
EXTT3=
EXTT4=
EXTT5=
EXTT6=
EXTT7=
EXTT8=
EXTT9=
EXTT10=
PLAYORDER=
